<svg width="51" height="49" viewBox="0 0 51 49" fill="none" xmlns="http://www.w3.org/2000/svg">
<path d="M10.6798 30.6753L8.33104 36.0741C8.27623 36.201 8.18536 36.3097 8.06931 36.3872C7.95326 36.4648 7.81693 36.5078 7.67661 36.5113L1.76778 37.0326L6.27212 40.8939C6.4813 41.0739 6.56098 41.3458 6.50321 41.5952L5.17243 47.3187L10.3033 44.3063C10.5424 44.1655 10.8312 44.1753 11.0544 44.3063L16.1872 47.3187L15.6025 44.8091C16.0886 44.8628 16.5897 44.8276 17.0767 44.6966L17.7421 47.5632C17.7611 47.6874 17.7611 47.8156 17.7401 47.9437C17.7146 48.098 17.6599 48.2463 17.5788 48.3809C17.4085 48.6602 17.1323 48.8618 16.8108 48.9413C16.502 49.0176 16.1633 48.9775 15.8655 48.8034L10.6788 45.7587L5.537 48.7789C5.42544 48.8513 5.29993 48.9051 5.16546 48.9384L5.07182 48.9608C4.92739 48.9863 4.77399 48.9863 4.6186 48.9569L4.5688 48.9481C4.2361 48.8718 3.96317 48.6694 3.79384 48.4043C3.62161 48.1355 3.562 47.8117 3.62749 47.5006L4.97919 41.692L0.429031 37.7906C0.308181 37.6869 0.208759 37.5614 0.13618 37.4209C0.0691768 37.2924 0.0256837 37.1534 0.00768361 37.0101L0.00270314 36.9466C-0.0192109 36.6228 0.0933477 36.3157 0.295555 36.079C0.49577 35.8453 0.783641 35.6829 1.11235 35.6467L7.15565 35.1176L9.52436 29.6689C9.58612 29.5252 9.67776 29.3902 9.79331 29.2758C9.88694 29.1828 9.99651 29.1036 10.122 29.042C10.1658 29.0185 10.2127 28.999 10.2615 28.9833C10.5563 28.8797 10.8711 28.8943 11.145 29.0019C11.4189 29.1105 11.655 29.3139 11.7965 29.5897L13.6711 33.8941L13.1262 36.2345C13.0864 36.1856 13.0545 36.1318 13.0296 36.0741L10.6798 30.6753ZM24.3452 1.11885C24.3452 0.512465 24.8463 0.0195312 25.4648 0.0195312C26.0824 0.0195312 26.5845 0.512465 26.5845 1.11885V6.0834C26.5845 6.68979 26.0824 7.18272 25.4648 7.18272C24.8463 7.18272 24.3452 6.68979 24.3452 6.0834V1.11885ZM4.07772 14.8643C3.50995 14.6296 3.243 13.988 3.48206 13.4305C3.72112 12.873 4.37555 12.6109 4.94333 12.8456L9.59807 14.7821C10.1658 15.0169 10.4328 15.6594 10.1937 16.2159C9.95467 16.7734 9.30024 17.0355 8.73247 16.8008L4.07772 14.8643ZM8.81116 7.74021C8.37686 7.31085 8.37886 6.61644 8.81614 6.19001C9.25343 5.76358 9.96065 5.76554 10.3949 6.1949L13.951 9.72368C14.3853 10.153 14.3833 10.8475 13.946 11.2739C13.5087 11.7003 12.8015 11.6984 12.3672 11.269L8.81116 7.74021ZM15.9482 2.91454C15.7141 2.3551 15.986 1.71448 16.5558 1.48464C17.1265 1.2548 17.778 1.52181 18.0131 2.08125L19.9355 6.67316C20.1696 7.2326 19.8967 7.87322 19.3269 8.10306C18.7572 8.3329 18.1047 8.0659 17.8706 7.50646L15.9482 2.91454ZM46.0561 12.8456C46.6239 12.6109 47.2783 12.873 47.5174 13.4305C47.7564 13.988 47.4895 14.6296 46.9217 14.8643L42.267 16.8008C41.6992 17.0355 41.0448 16.7734 40.8057 16.2159C40.5666 15.6594 40.8336 15.0169 41.4014 14.7821L46.0561 12.8456ZM40.6045 6.1949C41.0388 5.76554 41.746 5.76358 42.1833 6.19001C42.6206 6.61644 42.6226 7.31085 42.1883 7.74021L38.6322 11.269C38.1979 11.6984 37.4907 11.7003 37.0534 11.2739C36.6161 10.8475 36.6141 10.153 37.0484 9.72368L40.6045 6.1949ZM32.9864 2.08125C33.2214 1.52181 33.8729 1.2548 34.4436 1.48464C35.0134 1.71448 35.2853 2.3551 35.0513 2.91454L33.1288 7.50646C32.8947 8.0659 32.2423 8.3329 31.6725 8.10306C31.1027 7.87322 30.8298 7.2326 31.0639 6.67316L32.9864 2.08125ZM27.6981 12.918L31.035 20.5907L39.3952 21.3272C39.4719 21.3272 39.5476 21.3331 39.6213 21.3428C40.2359 21.4172 40.7708 21.7213 41.1454 22.1585L41.2669 22.3219C41.5627 22.7346 41.7251 23.2402 41.6972 23.7713L41.6773 23.9699C41.6404 24.233 41.5587 24.4814 41.4422 24.7073L41.3496 24.8638C41.2659 24.9968 41.1693 25.1201 41.0617 25.2345C40.98 25.3294 40.8864 25.4154 40.7838 25.4888L34.4526 30.9169L36.3781 39.2029C36.4866 39.7917 36.3571 40.3756 36.0513 40.8529C35.8863 41.1112 35.6709 41.3349 35.4176 41.5113C35.1643 41.6877 34.878 41.8133 34.5751 41.8808C34.2643 41.9532 33.9456 41.9571 33.6378 41.9033L33.6368 41.9091C33.319 41.8534 33.0162 41.7341 32.7493 41.5629L25.4997 37.3045L18.1276 41.6324C17.5978 41.9315 16.9705 42.0174 16.3775 41.872C15.7878 41.7263 15.2569 41.3605 14.9222 40.8147L14.8325 40.6475C14.7254 40.4348 14.6522 40.2072 14.6154 39.9726C14.5676 39.6763 14.5785 39.378 14.6443 39.0963L16.5468 30.9169L10.1121 25.4007C9.87711 25.1992 9.68498 24.9542 9.54669 24.6796C9.40841 24.405 9.32669 24.1063 9.30622 23.8007C9.26737 23.2138 9.45762 22.6065 9.88893 22.1223C10.0966 21.8889 10.3496 21.6984 10.633 21.5619C10.9129 21.425 11.2237 21.3477 11.5415 21.3301L19.9644 20.5907L23.3203 12.8759C23.4421 12.5944 23.6194 12.3393 23.842 12.1253C24.0645 11.9113 24.328 11.7426 24.6172 11.6289C25.8304 11.1487 27.1931 11.7297 27.6881 12.8935L27.6981 12.918ZM41.481 29.6836L43.8438 35.1176L49.8871 35.6467C50.2158 35.6829 50.5037 35.8453 50.7039 36.079C50.9061 36.3157 51.0186 36.6228 50.9967 36.9466L50.9917 37.0101C50.9737 37.1534 50.9302 37.2924 50.8632 37.4209C50.7915 37.5608 50.6909 37.6869 50.5704 37.7906L46.0202 41.692L47.3719 47.5006C47.4397 47.8224 47.3719 48.1442 47.2056 48.4043C47.0363 48.6694 46.7633 48.8718 46.4306 48.9481L46.3808 48.9569C46.2254 48.9863 46.072 48.9863 45.9276 48.9608L45.834 48.9384C45.6995 48.9051 45.574 48.8513 45.4624 48.7789L40.3196 45.7587L35.1339 48.8034C34.9934 48.8863 34.8375 48.9412 34.6753 48.9648C34.5131 48.9885 34.3477 48.9805 34.1886 48.9413C33.8798 48.865 33.598 48.6713 33.4206 48.3809C33.337 48.243 33.2832 48.0943 33.2583 47.9456L33.2573 47.9378C33.2364 47.8156 33.2374 47.6894 33.2573 47.5652L33.9237 44.6936C34.0323 44.723 34.1438 44.7474 34.2554 44.767C34.6289 44.8335 35.0144 44.8492 35.3969 44.8071L34.8122 47.3187L39.9441 44.3063C40.1682 44.1753 40.4561 44.1655 40.6951 44.3063L45.827 47.3187L44.4952 41.5952C44.4384 41.3458 44.5181 41.0739 44.7273 40.8939L49.2316 37.0326L43.3228 36.5113C43.1825 36.5078 43.0462 36.4648 42.9301 36.3872C42.8141 36.3097 42.7232 36.201 42.6684 36.0741L40.3196 30.6753L37.9718 36.0741C37.9459 36.1338 37.911 36.1895 37.8702 36.2394L37.3263 33.9009L39.203 29.5897C39.3444 29.3139 39.5805 29.1105 39.8544 29.0019C40.1283 28.8943 40.4431 28.8797 40.738 28.9833C40.7868 28.999 40.8336 29.0185 40.8774 29.042C41.0029 29.1036 41.1125 29.1828 41.2061 29.2758C41.3217 29.3902 41.4133 29.5252 41.4751 29.6689L41.481 29.6836Z" fill="black"/>
<path d="M26.2007 13.498L29.931 22.0754L39.3949 22.9087C39.8123 22.9449 40.1211 23.3058 40.0852 23.7156C40.0685 23.9072 39.9767 24.085 39.8292 24.2115V24.2124L32.6703 30.3497L34.788 39.4474C34.8816 39.8494 34.6256 40.2494 34.2162 40.3423C34.007 40.3883 33.7979 40.3463 33.6305 40.2387L25.4994 35.4658L17.3424 40.2543C17.2567 40.3046 17.1618 40.3377 17.0631 40.3519C16.9643 40.3661 16.8637 40.3611 16.767 40.3371C16.6702 40.3132 16.5792 40.2707 16.4992 40.2122C16.4191 40.1537 16.3516 40.0802 16.3005 39.9961C16.1998 39.8313 16.1681 39.6347 16.2118 39.4474H16.2108L18.3285 30.3497L11.1696 24.2124C10.8538 23.9415 10.822 23.4701 11.0979 23.1601C11.1647 23.0852 11.246 23.0242 11.3372 22.9807C11.4284 22.9372 11.5276 22.912 11.6288 22.9067L21.0668 22.0754L24.8001 13.4931C24.9645 13.1136 25.4107 12.9375 25.7972 13.0989C25.9875 13.1781 26.1269 13.3249 26.2007 13.498Z" fill="#F7D345"/>
<path d="M10.6798 30.6753L8.33104 36.0741C8.27623 36.201 8.18536 36.3097 8.06931 36.3872C7.95326 36.4648 7.81693 36.5078 7.67661 36.5113L1.76778 37.0326L6.27212 40.8939C6.4813 41.0739 6.56098 41.3458 6.50321 41.5952L5.17243 47.3187L10.3033 44.3063C10.5424 44.1655 10.8312 44.1753 11.0544 44.3063L16.1872 47.3187L15.6025 44.8091C16.0886 44.8628 16.5897 44.8276 17.0767 44.6966L17.7421 47.5632C17.7611 47.6874 17.7611 47.8156 17.7401 47.9437C17.7146 48.098 17.6599 48.2463 17.5788 48.3809C17.4085 48.6602 17.1323 48.8618 16.8108 48.9413C16.502 49.0176 16.1633 48.9775 15.8655 48.8034L10.6788 45.7587L5.537 48.7789C5.42544 48.8513 5.29993 48.9051 5.16546 48.9384L5.07182 48.9608C4.92739 48.9863 4.77399 48.9863 4.6186 48.9569L4.5688 48.9481C4.2361 48.8718 3.96317 48.6694 3.79384 48.4043C3.62161 48.1355 3.562 47.8117 3.62749 47.5006L4.97919 41.692L0.429031 37.7906C0.308181 37.6869 0.208759 37.5614 0.13618 37.4209C0.0691768 37.2924 0.0256837 37.1534 0.00768361 37.0101L0.00270314 36.9466C-0.0192109 36.6228 0.0933477 36.3157 0.295555 36.079C0.49577 35.8453 0.783641 35.6829 1.11235 35.6467L7.15565 35.1176L9.52436 29.6689C9.58612 29.5252 9.67776 29.3902 9.79331 29.2758C9.88694 29.1828 9.99651 29.1036 10.122 29.042C10.1658 29.0185 10.2127 28.999 10.2615 28.9833C10.5563 28.8797 10.8711 28.8943 11.145 29.0019C11.4189 29.1105 11.655 29.3139 11.7965 29.5897L13.6711 33.8941L13.1262 36.2345C13.0864 36.1856 13.0545 36.1318 13.0296 36.0741L10.6798 30.6753ZM24.3452 1.11885C24.3452 0.512465 24.8463 0.0195312 25.4648 0.0195312C26.0824 0.0195312 26.5845 0.512465 26.5845 1.11885V6.0834C26.5845 6.68979 26.0824 7.18272 25.4648 7.18272C24.8463 7.18272 24.3452 6.68979 24.3452 6.0834V1.11885ZM4.07772 14.8643C3.50995 14.6296 3.243 13.988 3.48206 13.4305C3.72112 12.873 4.37555 12.6109 4.94333 12.8456L9.59807 14.7821C10.1658 15.0169 10.4328 15.6594 10.1937 16.2159C9.95467 16.7734 9.30024 17.0355 8.73247 16.8008L4.07772 14.8643ZM8.81116 7.74021C8.37686 7.31085 8.37886 6.61644 8.81614 6.19001C9.25343 5.76358 9.96065 5.76554 10.3949 6.1949L13.951 9.72368C14.3853 10.153 14.3833 10.8475 13.946 11.2739C13.5087 11.7003 12.8015 11.6984 12.3672 11.269L8.81116 7.74021ZM15.9482 2.91454C15.7141 2.3551 15.986 1.71448 16.5558 1.48464C17.1265 1.2548 17.778 1.52181 18.0131 2.08125L19.9355 6.67316C20.1696 7.2326 19.8967 7.87322 19.3269 8.10306C18.7572 8.3329 18.1047 8.0659 17.8706 7.50646L15.9482 2.91454ZM46.0561 12.8456C46.6239 12.6109 47.2783 12.873 47.5174 13.4305C47.7564 13.988 47.4895 14.6296 46.9217 14.8643L42.267 16.8008C41.6992 17.0355 41.0448 16.7734 40.8057 16.2159C40.5666 15.6594 40.8336 15.0169 41.4014 14.7821L46.0561 12.8456ZM40.6045 6.1949C41.0388 5.76554 41.746 5.76358 42.1833 6.19001C42.6206 6.61644 42.6226 7.31085 42.1883 7.74021L38.6322 11.269C38.1979 11.6984 37.4907 11.7003 37.0534 11.2739C36.6161 10.8475 36.6141 10.153 37.0484 9.72368L40.6045 6.1949ZM32.9864 2.08125C33.2214 1.52181 33.8729 1.2548 34.4436 1.48464C35.0134 1.71448 35.2853 2.3551 35.0513 2.91454L33.1288 7.50646C32.8947 8.0659 32.2423 8.3329 31.6725 8.10306C31.1027 7.87322 30.8298 7.2326 31.0639 6.67316L32.9864 2.08125ZM27.6981 12.918L31.035 20.5907L39.3952 21.3272C39.4719 21.3272 39.5476 21.3331 39.6213 21.3428C40.2359 21.4172 40.7708 21.7213 41.1454 22.1585L41.2669 22.3219C41.5627 22.7346 41.7251 23.2402 41.6972 23.7713L41.6773 23.9699C41.6404 24.233 41.5587 24.4814 41.4422 24.7073L41.3496 24.8638C41.2659 24.9968 41.1693 25.1201 41.0617 25.2345C40.98 25.3294 40.8864 25.4154 40.7838 25.4888L34.4526 30.9169L36.3781 39.2029C36.4866 39.7917 36.3571 40.3756 36.0513 40.8529C35.8863 41.1112 35.6709 41.3349 35.4176 41.5113C35.1643 41.6877 34.878 41.8133 34.5751 41.8808C34.2643 41.9532 33.9456 41.9571 33.6378 41.9033L33.6368 41.9091C33.319 41.8534 33.0162 41.7341 32.7493 41.5629L25.4997 37.3045L18.1276 41.6324C17.5978 41.9315 16.9705 42.0174 16.3775 41.872C15.7878 41.7263 15.2569 41.3605 14.9222 40.8147L14.8325 40.6475C14.7254 40.4348 14.6522 40.2072 14.6154 39.9726C14.5676 39.6763 14.5785 39.378 14.6443 39.0963L16.5468 30.9169L10.1121 25.4007C9.87711 25.1992 9.68498 24.9542 9.54669 24.6796C9.40841 24.405 9.32669 24.1063 9.30622 23.8007C9.26737 23.2138 9.45762 22.6065 9.88893 22.1223C10.0966 21.8889 10.3496 21.6984 10.633 21.5619C10.9129 21.425 11.2237 21.3477 11.5415 21.3301L19.9644 20.5907L23.3203 12.8759C23.4421 12.5944 23.6194 12.3393 23.842 12.1253C24.0645 11.9113 24.328 11.7426 24.6172 11.6289C25.8304 11.1487 27.1931 11.7297 27.6881 12.8935L27.6981 12.918ZM41.481 29.6836L43.8438 35.1176L49.8871 35.6467C50.2158 35.6829 50.5037 35.8453 50.7039 36.079C50.9061 36.3157 51.0186 36.6228 50.9967 36.9466L50.9917 37.0101C50.9737 37.1534 50.9302 37.2924 50.8632 37.4209C50.7915 37.5608 50.6909 37.6869 50.5704 37.7906L46.0202 41.692L47.3719 47.5006C47.4397 47.8224 47.3719 48.1442 47.2056 48.4043C47.0363 48.6694 46.7633 48.8718 46.4306 48.9481L46.3808 48.9569C46.2254 48.9863 46.072 48.9863 45.9276 48.9608L45.834 48.9384C45.6995 48.9051 45.574 48.8513 45.4624 48.7789L40.3196 45.7587L35.1339 48.8034C34.9934 48.8863 34.8375 48.9412 34.6753 48.9648C34.5131 48.9885 34.3477 48.9805 34.1886 48.9413C33.8798 48.865 33.598 48.6713 33.4206 48.3809C33.337 48.243 33.2832 48.0943 33.2583 47.9456L33.2573 47.9378C33.2364 47.8156 33.2374 47.6894 33.2573 47.5652L33.9237 44.6936C34.0323 44.723 34.1438 44.7474 34.2554 44.767C34.6289 44.8335 35.0144 44.8492 35.3969 44.8071L34.8122 47.3187L39.9441 44.3063C40.1682 44.1753 40.4561 44.1655 40.6951 44.3063L45.827 47.3187L44.4952 41.5952C44.4384 41.3458 44.5181 41.0739 44.7273 40.8939L49.2316 37.0326L43.3228 36.5113C43.1825 36.5078 43.0462 36.4648 42.9301 36.3872C42.8141 36.3097 42.7232 36.201 42.6684 36.0741L40.3196 30.6753L37.9718 36.0741C37.9459 36.1338 37.911 36.1895 37.8702 36.2394L37.3263 33.9009L39.203 29.5897C39.3444 29.3139 39.5805 29.1105 39.8544 29.0019C40.1283 28.8943 40.4431 28.8797 40.738 28.9833C40.7868 28.999 40.8336 29.0185 40.8774 29.042C41.0029 29.1036 41.1125 29.1828 41.2061 29.2758C41.3217 29.3902 41.4133 29.5252 41.4751 29.6689L41.481 29.6836Z" fill="#181818"/>
<path d="M26.2007 13.498L29.931 22.0754L39.3949 22.9087C39.8123 22.9449 40.1211 23.3058 40.0852 23.7156C40.0685 23.9072 39.9767 24.085 39.8292 24.2115V24.2124L32.6703 30.3497L34.788 39.4474C34.8816 39.8494 34.6256 40.2494 34.2162 40.3423C34.007 40.3883 33.7979 40.3463 33.6305 40.2387L25.4994 35.4658L17.3424 40.2543C17.2567 40.3046 17.1618 40.3377 17.0631 40.3519C16.9643 40.3661 16.8637 40.3611 16.767 40.3371C16.6702 40.3132 16.5792 40.2707 16.4992 40.2122C16.4191 40.1537 16.3516 40.0802 16.3005 39.9961C16.1998 39.8313 16.1681 39.6347 16.2118 39.4474H16.2108L18.3285 30.3497L11.1696 24.2124C10.8538 23.9415 10.822 23.4701 11.0979 23.1601C11.1647 23.0852 11.246 23.0242 11.3372 22.9807C11.4284 22.9372 11.5276 22.912 11.6288 22.9067L21.0668 22.0754L24.8001 13.4931C24.9645 13.1136 25.4107 12.9375 25.7972 13.0989C25.9875 13.1781 26.1269 13.3249 26.2007 13.498Z" fill="#F7D345"/>
</svg>
